<svg width="24" height="24" viewBox="0 0 24 24" fill="none" xmlns="http://www.w3.org/2000/svg">
<g clip-path="url(#clip0_1_20304)">
<path d="M0.566625 8.34794C0.199031 9.49956 -4.68667e-05 10.7264 8.276e-09 12C-4.68667e-05 13.2736 0.199078 14.5005 0.566672 15.6521L12 16.174L23.4333 15.6522C23.8009 14.5006 24 13.2736 24 12.0001C24 10.7265 23.8009 9.49956 23.4333 8.34789L12 7.82617L0.566625 8.34794Z" fill="#F0F0F0"/>
<path d="M23.4333 8.34789L12 7.82617L0.566592 8.34789C0.457654 8.68933 0.363857 9.03747 0.285248 9.39138H23.7145C23.636 9.03742 23.5422 8.68923 23.4333 8.34789Z" fill="#D80027"/>
<path d="M0.2854 14.6089C0.363916 14.9628 0.457713 15.3109 0.56665 15.6523L0.567775 15.6524L11.9999 16.1741L23.4333 15.6524C23.5422 15.3109 23.636 14.9628 23.7146 14.6089H0.2854Z" fill="#D80027"/>
<path d="M12 24.0002C17.3538 24.0002 21.8881 20.4938 23.4333 15.6523H0.566681C2.11192 20.4937 6.64623 24.0002 12 24.0002Z" fill="#6DA544"/>
<path d="M11.9999 4.69973e-10C6.64617 4.68755e-05 2.11195 3.50644 0.56662 8.34783L23.4332 8.34787C21.8881 3.50639 17.3538 -4.68745e-05 11.9999 4.69973e-10Z" fill="#338AF3"/>
<path d="M5.48373 4.95667C5.48373 3.83275 6.27362 2.89384 7.32845 2.6635C7.16635 2.62806 6.99812 2.60889 6.82534 2.60889C5.52868 2.60889 4.47751 3.66001 4.47751 4.95671C4.47751 6.25342 5.52859 7.30454 6.82534 7.30454C6.99812 7.30454 7.16631 7.28532 7.32845 7.24993C6.27366 7.0195 5.48373 6.08059 5.48373 4.95667Z" fill="#F0F0F0"/>
<path d="M8.71613 6.02393L8.87503 6.51307H9.38935L8.97328 6.81541L9.13219 7.30455L8.71613 7.00225L8.29997 7.30455L8.45893 6.81541L8.04282 6.51307H8.55713L8.71613 6.02393Z" fill="#F0F0F0"/>
<path d="M10.3577 6.02393L10.5167 6.51307H11.031L10.6149 6.81541L10.7738 7.30455L10.3577 7.00225L9.94159 7.30455L10.1005 6.81541L9.68448 6.51307H10.1987L10.3577 6.02393Z" fill="#F0F0F0"/>
<path d="M11.9993 6.02393L12.1582 6.51307H12.6726L12.2565 6.81541L12.4154 7.30455L11.9993 7.00225L11.5831 7.30455L11.7421 6.81541L11.326 6.51307H11.8403L11.9993 6.02393Z" fill="#F0F0F0"/>
<path d="M13.6409 6.02393L13.7999 6.51307H14.3141L13.8981 6.81541L14.057 7.30455L13.6409 7.00225L13.2247 7.30455L13.3837 6.81541L12.9676 6.51307H13.4819L13.6409 6.02393Z" fill="#F0F0F0"/>
<path d="M15.2825 6.02393L15.4414 6.51307H15.9557L15.5397 6.81541L15.6986 7.30455L15.2825 7.00225L14.8664 7.30455L15.0253 6.81541L14.6093 6.51307H15.1235L15.2825 6.02393Z" fill="#F0F0F0"/>
<path d="M10.3577 4.31641L10.5167 4.8055H11.031L10.6149 5.10789L10.7738 5.59698L10.3577 5.29469L9.94159 5.59698L10.1005 5.10789L9.68448 4.8055H10.1987L10.3577 4.31641Z" fill="#F0F0F0"/>
<path d="M11.9993 4.31641L12.1582 4.8055H12.6726L12.2565 5.10789L12.4154 5.59698L11.9993 5.29469L11.5831 5.59698L11.7421 5.10789L11.326 4.8055H11.8403L11.9993 4.31641Z" fill="#F0F0F0"/>
<path d="M13.6409 4.31641L13.7999 4.8055H14.3141L13.8981 5.10789L14.057 5.59698L13.6409 5.29469L13.2247 5.59698L13.3837 5.10789L12.9676 4.8055H13.4819L13.6409 4.31641Z" fill="#F0F0F0"/>
<path d="M15.2825 4.31641L15.4414 4.8055H15.9557L15.5397 5.10789L15.6986 5.59698L15.2825 5.29469L14.8664 5.59698L15.0253 5.10789L14.6093 4.8055H15.1235L15.2825 4.31641Z" fill="#F0F0F0"/>
<path d="M11.9993 2.60889L12.1582 3.09807H12.6726L12.2565 3.40037L12.4154 3.88956L11.9993 3.58726L11.5831 3.88956L11.7421 3.40037L11.326 3.09807H11.8403L11.9993 2.60889Z" fill="#F0F0F0"/>
<path d="M13.6409 2.60889L13.7999 3.09807H14.3141L13.8981 3.40037L14.057 3.88956L13.6409 3.58726L13.2247 3.88956L13.3837 3.40037L12.9676 3.09807H13.4819L13.6409 2.60889Z" fill="#F0F0F0"/>
<path d="M15.2825 2.60889L15.4414 3.09807H15.9557L15.5397 3.40037L15.6986 3.88956L15.2825 3.58726L14.8664 3.88956L15.0253 3.40037L14.6093 3.09807H15.1235L15.2825 2.60889Z" fill="#F0F0F0"/>
</g>
<defs>
<clipPath id="clip0_1_20304">
<rect width="24" height="24" fill="white"/>
</clipPath>
</defs>
</svg>
